<?xml version="1.0" encoding="UTF-8" standalone="no"?>
<!-- Generator: Adobe Illustrator 16.0.0, SVG Export Plug-In . SVG Version: 6.00 Build 0)  -->

<svg
   xmlns:dc="http://purl.org/dc/elements/1.1/"
   xmlns:cc="http://creativecommons.org/ns#"
   xmlns:rdf="http://www.w3.org/1999/02/22-rdf-syntax-ns#"
   xmlns:svg="http://www.w3.org/2000/svg"
   xmlns="http://www.w3.org/2000/svg"
   xmlns:sodipodi="http://sodipodi.sourceforge.net/DTD/sodipodi-0.dtd"
   xmlns:inkscape="http://www.inkscape.org/namespaces/inkscape"
   version="1.1"
   id="Layer_1"
   x="0px"
   y="0px"
   width="450"
   height="450"
   viewBox="0 0 450 450"
   enable-background="new 0 0 32 32"
   xml:space="preserve"
   inkscape:version="0.91 r13725"
   sodipodi:docname="ScheduleSms.svg"><metadata
     id="metadata3342"><rdf:RDF><cc:Work
         rdf:about=""><dc:format>image/svg+xml</dc:format><dc:type
           rdf:resource="http://purl.org/dc/dcmitype/StillImage" /><dc:title></dc:title></cc:Work></rdf:RDF></metadata><defs
     id="defs3340" /><sodipodi:namedview
     pagecolor="#ffffff"
     bordercolor="#666666"
     borderopacity="1"
     objecttolerance="10"
     gridtolerance="10"
     guidetolerance="10"
     inkscape:pageopacity="0"
     inkscape:pageshadow="2"
     inkscape:window-width="1858"
     inkscape:window-height="1177"
     id="namedview3338"
     showgrid="false"
     inkscape:zoom="0.67672329"
     inkscape:cx="-118.14141"
     inkscape:cy="111.90557"
     inkscape:window-x="-8"
     inkscape:window-y="-8"
     inkscape:window-maximized="1"
     inkscape:current-layer="Layer_1" /><rect
     style="fill:#ffffff;fill-opacity:1;stroke:#357ec7;stroke-width:28.13626671;stroke-linecap:butt;stroke-miterlimit:4;stroke-dasharray:none;stroke-opacity:1"
     id="rect4417"
     width="423.42496"
     height="424.0939"
     x="13.287521"
     y="12.953049"
     rx="79.601212"
     ry="79.601212" /><g
     id="g3489"
     transform="translate(3.0976541,17.342247)"><path
       style="fill:#357ec7;fill-opacity:1"
       inkscape:connector-curvature="0"
       d="m 365.41281,163.50319 -214.46017,0 c -19.7392,0 -35.74327,16.01302 -35.74327,35.74341 l 0,116.16577 c 0,19.73934 16.00407,35.7434 35.74327,35.7434 l 214.46017,0 c 19.73921,0 35.74327,-16.00406 35.74327,-35.7434 l 0,-116.16577 c 0,-19.73039 -16.00406,-35.74341 -35.74327,-35.74341 z m -232.3318,46.91315 62.5419,46.91314 -62.5419,46.91315 0,-93.82629 z m 250.20344,104.99603 c 0,9.86526 -8.02442,17.87177 -17.87164,17.87177 l -214.46017,0 c -9.85617,0 -17.87163,-8.00651 -17.87163,-17.87177 l 69.98545,-52.49795 39.03174,29.28276 c 4.76282,3.55644 10.41926,5.36146 16.08453,5.36146 5.65644,0 11.31275,-1.79606 16.07557,-5.36146 l 39.04069,-29.28276 69.98546,52.49795 0,0 z m 0,-11.16974 -62.55086,-46.91315 62.55086,-46.91314 0,93.82629 z M 268.89683,285.04847 c -3.11859,2.34111 -6.81804,3.57435 -10.7141,3.57435 -3.89607,0 -7.60434,-1.2418 -10.72306,-3.57435 l -36.94965,-27.71899 -7.44356,-5.58493 -69.98545,-52.48913 0,-0.009 c 0,-9.8563 8.01546,-17.87177 17.87163,-17.87177 l 214.46017,0 c 9.84722,0 17.87164,8.01547 17.87164,17.87177 l -114.38762,85.80187 z"
       id="mail" /><g
       id="g3485"><path
         inkscape:connector-curvature="0"
         id="_x31_0-alarm_clock"
         d="m 165.72362,159.7476 -28.37343,0 0,-28.37939 c 0,-3.61657 -2.94442,-6.54909 -6.55504,-6.54909 -3.61063,0 -6.55504,2.93252 -6.55504,6.54909 l 0,23.68023 0,7.50081 c 0,0 -1.51088,10.4155 10.30247,10.29653 l 11.08764,0 0.0241,0 20.06366,0 c 3.62252,0 6.54909,-2.93252 6.54909,-6.55504 0.0121,-3.61062 -2.92062,-6.54314 -6.54313,-6.54314 z M 131.87179,88.689072 c -41.935594,0 -75.936138,34.000548 -75.936138,75.936148 0,41.94748 34.000544,75.94803 75.936138,75.94803 41.9356,0 75.94208,-34.00055 75.94208,-75.94803 0,-41.9356 -34.00648,-75.936148 -75.94208,-75.936148 z m 0,131.558798 c -30.71708,0 -55.628605,-24.90558 -55.628605,-55.6286 0,-30.71708 24.911525,-55.62267 55.628605,-55.62267 30.72302,0 55.62266,24.89965 55.62266,55.62267 0,30.72896 -24.89964,55.6286 -55.62266,55.6286 z M 119.46956,81.057402 113.45582,75.03176 c -14.501983,-14.496033 -38.00376,-14.496033 -52.493844,0 l -7.441339,7.441337 c -14.490085,14.496033 -14.501981,37.997803 0,52.493843 l 0.172498,0.16059 C 64.15027,106.99203 89.07964,85.9707 119.46956,81.057402 Z m 90.75338,1.415695 -7.43539,-7.441337 c -14.50198,-14.496033 -37.99781,-14.496033 -52.48789,0 l -6.0197,6.025642 c 30.38993,4.913298 55.3193,25.934628 65.78238,54.076088 l 0.16059,-0.16059 c 14.49604,-14.50199 14.49604,-38.00376 0,-52.499793 z"
         style="fill:#357ec7;fill-opacity:1" /><path
         style="fill:#ffffff;fill-opacity:1;stroke:#ffffff;stroke-width:1.47770882;stroke-opacity:1"
         d="m 117.90437,217.60043 c -29.054361,-8.13655 -46.561278,-37.39722 -39.309979,-65.70181 9.104586,-35.53868 47.181759,-52.304966 79.646529,-35.07028 32.83177,17.42952 38.254,62.74882 10.53827,88.07944 -13.65419,12.47915 -33.74164,17.49073 -50.87482,12.69265 z m 51.35518,-45.83204 c 3.57296,-2.50259 4.33236,-7.88209 1.51097,-10.70348 -1.14965,-1.14965 -7.12584,-1.77325 -16.99365,-1.77325 l -15.2204,0 0,-14.77709 c 0,-12.80681 -0.39406,-15.17114 -2.95542,-17.73251 -3.59486,-3.59485 -5.58732,-3.70624 -9.11933,-0.50982 -2.35837,2.1343 -2.69946,4.90864 -2.67971,21.7962 0.0124,10.64284 0.52994,20.14871 1.14999,21.12414 2.19147,3.44751 8.61514,4.68989 24.72791,4.7825 12.47307,0.0717 17.06579,-0.44592 19.57964,-2.20669 z"
         id="path3483"
         inkscape:connector-curvature="0" /></g></g></svg>