<?xml version="1.0" encoding="UTF-8" standalone="no"?>
<!-- Generator: Adobe Illustrator 16.0.0, SVG Export Plug-In . SVG Version: 6.00 Build 0)  -->

<svg
   xmlns:dc="http://purl.org/dc/elements/1.1/"
   xmlns:cc="http://creativecommons.org/ns#"
   xmlns:rdf="http://www.w3.org/1999/02/22-rdf-syntax-ns#"
   xmlns:svg="http://www.w3.org/2000/svg"
   xmlns="http://www.w3.org/2000/svg"
   xmlns:sodipodi="http://sodipodi.sourceforge.net/DTD/sodipodi-0.dtd"
   xmlns:inkscape="http://www.inkscape.org/namespaces/inkscape"
   version="1.1"
   id="Layer_1"
   x="0px"
   y="0px"
   width="450"
   height="450"
   viewBox="0 0 450 450"
   enable-background="new 0 0 32 32"
   xml:space="preserve"
   inkscape:version="0.91 r13725"
   sodipodi:docname="ScheduleSmsNotification.svg"><metadata
     id="metadata3342"><rdf:RDF><cc:Work
         rdf:about=""><dc:format>image/svg+xml</dc:format><dc:type
           rdf:resource="http://purl.org/dc/dcmitype/StillImage" /><dc:title></dc:title></cc:Work></rdf:RDF></metadata><defs
     id="defs3340" /><sodipodi:namedview
     pagecolor="#ffffff"
     bordercolor="#666666"
     borderopacity="1"
     objecttolerance="10"
     gridtolerance="10"
     guidetolerance="10"
     inkscape:pageopacity="0"
     inkscape:pageshadow="2"
     inkscape:window-width="1858"
     inkscape:window-height="1177"
     id="namedview3338"
     showgrid="false"
     inkscape:zoom="0.67672329"
     inkscape:cx="-300.63845"
     inkscape:cy="111.90557"
     inkscape:window-x="-8"
     inkscape:window-y="-8"
     inkscape:window-maximized="1"
     inkscape:current-layer="Layer_1" /><g
     id="g3387"><g
       style="fill:#ffffff"
       id="g3383"><path
         style="fill:#ffffff;fill-opacity:1"
         d="M 203.48633 180.8457 A 58.369499 61.324917 0 0 1 203.92383 187.70703 A 58.369499 61.324917 0 0 1 202.92969 198.7168 L 368.50977 198.7168 C 378.35699 198.7168 386.38281 206.73159 386.38281 216.58789 L 271.99414 302.39062 C 268.87555 304.73174 265.17731 305.96484 261.28125 305.96484 C 257.38518 305.96484 253.67536 304.72317 250.55664 302.39062 L 213.60742 274.67188 L 206.16406 269.08594 L 171.10742 242.79297 A 58.369499 61.324917 0 0 1 161.43555 246.70312 L 198.7207 274.67188 L 136.17773 321.58398 L 136.17773 248.16016 A 58.369499 61.324917 0 0 1 118.30664 241.89648 L 118.30664 332.75391 C 118.30664 352.49325 134.31158 368.49805 154.05078 368.49805 L 368.50977 368.49805 C 388.24898 368.49805 404.25391 352.49325 404.25391 332.75391 L 404.25391 216.58789 C 404.25391 196.8575 388.24898 180.8457 368.50977 180.8457 L 203.48633 180.8457 z M 386.38281 227.75781 L 386.38281 321.58398 L 323.83203 274.67188 L 386.38281 227.75781 z M 206.16406 280.25586 L 245.19531 309.53906 C 249.95813 313.0955 255.61598 314.90039 261.28125 314.90039 C 266.93769 314.90039 272.59265 313.10446 277.35547 309.53906 L 316.39648 280.25586 L 386.38281 332.75391 C 386.38281 342.61917 378.35699 350.62695 368.50977 350.62695 L 154.05078 350.62695 C 144.19461 350.62695 136.17773 342.61917 136.17773 332.75391 L 206.16406 280.25586 z "
         id="mail" /><path
         inkscape:connector-curvature="0"
         id="_x31_0-alarm_clock"
         d="m 168.82127,177.08985 -28.37343,0 0,-28.37939 c 0,-3.61657 -2.94442,-6.54909 -6.55504,-6.54909 -3.61063,0 -6.55504,2.93252 -6.55504,6.54909 l 0,23.68023 0,7.50081 c 0,0 -1.51088,10.4155 10.30247,10.29653 l 11.08764,0 0.0241,0 20.06366,0 c 3.62252,0 6.54909,-2.93252 6.54909,-6.55504 0.0121,-3.61062 -2.92062,-6.54314 -6.54313,-6.54314 z m -33.85183,-71.05853 c -41.93559,0 -75.936134,34.00055 -75.936134,75.93615 0,41.94748 34.000544,75.94803 75.936134,75.94803 41.9356,0 75.94208,-34.00055 75.94208,-75.94803 0,-41.9356 -34.00648,-75.93615 -75.94208,-75.93615 z m 0,131.5588 c -30.71708,0 -55.628601,-24.90558 -55.628601,-55.6286 0,-30.71708 24.911521,-55.62267 55.628601,-55.62267 30.72302,0 55.62266,24.89965 55.62266,55.62267 0,30.72896 -24.89964,55.6286 -55.62266,55.6286 z M 122.56721,98.399649 116.55347,92.374007 c -14.50198,-14.496033 -38.003756,-14.496033 -52.49384,0 l -7.441339,7.441337 c -14.490085,14.496036 -14.501981,37.997806 0,52.493846 l 0.172498,0.16059 c 10.457135,-28.1355 35.386505,-49.15683 65.776421,-54.070131 z m 90.75338,1.415695 -7.43539,-7.441337 c -14.50198,-14.496033 -37.99781,-14.496033 -52.48789,0 l -6.0197,6.025642 c 30.38993,4.913301 55.3193,25.934631 65.78238,54.076091 l 0.16059,-0.16059 c 14.49604,-14.50199 14.49604,-38.00376 0,-52.499796 z"
         style="fill:#ffffff;fill-opacity:1" /></g></g></svg>